<svg width="280" height="70" viewBox="0 0 280 70" fill="none" xmlns="http://www.w3.org/2000/svg">
<mask id="mask0_278_971" style="mask-type:alpha" maskUnits="userSpaceOnUse" x="14" y="46" width="41" height="16">
<path fill-rule="evenodd" clip-rule="evenodd" d="M48.6346 49.1546C46.5083 48.219 44.3114 47.5023 42.0429 47.005C39.7738 46.5077 37.4783 46.2394 35.1559 46.2H33.8573C32.0978 46.2306 30.35 46.3925 28.6146 46.6871C26.8799 46.9809 25.1766 47.4038 23.5053 47.9551C21.8341 48.5063 20.2131 49.1801 18.644 49.9763C17.0741 50.7719 15.5734 51.6811 14.1406 52.7034C14.46 53.0614 14.7874 53.41 15.125 53.7505C15.4626 54.091 15.8082 54.4221 16.1633 54.7444C16.5177 55.0659 16.8808 55.3787 17.252 55.6813C17.6231 55.9847 18.0023 56.2778 18.3888 56.5607C18.7752 56.8436 19.169 57.1163 19.57 57.3781C19.971 57.6406 20.3786 57.8922 20.7928 58.1328C21.207 58.3734 21.627 58.6031 22.0535 58.8219C22.4801 59.0406 22.9118 59.2477 23.3493 59.4438C23.786 59.64 24.2279 59.8237 24.6749 59.9965C25.1219 60.1694 25.5732 60.3298 26.029 60.4793C26.484 60.628 26.9433 60.7644 27.4056 60.889C27.8686 61.0137 28.3339 61.126 28.8027 61.2266C29.2708 61.3265 29.7419 61.4148 30.2151 61.4899C30.6883 61.565 31.163 61.6277 31.6392 61.6787C32.116 61.729 32.5929 61.7662 33.072 61.7918C33.5503 61.8173 34.0286 61.8297 34.5084 61.8297C34.9875 61.8297 35.4658 61.8173 35.9442 61.7918C36.4232 61.7662 36.9001 61.729 37.377 61.6787C37.8531 61.6277 38.3278 61.565 38.801 61.4899C39.2743 61.4148 39.7453 61.3265 40.2134 61.2266C40.6823 61.126 41.1475 61.0137 41.6105 60.889C42.0728 60.7644 42.5322 60.628 42.9872 60.4785C43.4429 60.3298 43.8943 60.1694 44.3413 59.9965C44.7882 59.8237 45.2301 59.64 45.6676 59.4438C46.1044 59.2477 46.536 59.0406 46.9626 58.8219C47.3892 58.6031 47.8092 58.3734 48.2233 58.1328C48.6375 57.8922 49.0451 57.6406 49.4461 57.3781C49.8472 57.1163 50.2409 56.8436 50.6274 56.5607C51.0139 56.2778 51.393 55.9847 51.7642 55.6813C52.1353 55.3787 52.4984 55.0659 52.8528 54.7444C53.2079 54.4221 53.5535 54.091 53.8911 53.7505C54.2288 53.41 54.5561 53.0614 54.8755 52.7034C52.917 51.3056 50.8367 50.1229 48.6346 49.1546Z" fill="#D9D9D9"/>
</mask>
<g mask="url(#mask0_278_971)">
<path d="M21.7415 53.2849C24.0143 57.1443 20.3527 63.1068 20.3527 63.1068C16.6016 69.361 19.8591 72.5184 21.421 74.2506C17.7757 71.3302 15.1936 67.2907 14.0735 62.7562C12.9534 58.2217 13.3577 53.4445 15.224 49.1627C16.8144 49.334 20.0095 50.3436 21.7415 53.2849Z" fill="white"/>
<path d="M53.6456 51.8542L54.7411 51.4996C54.8317 51.4705 54.9237 51.4454 55.0166 51.4245C53.5054 46.4777 50.2352 42.2555 45.8236 39.5551C35.9374 33.4838 23.0311 36.472 16.808 46.2075C19.1107 46.7415 22.462 48.2235 24.4888 51.6675C26.3511 54.831 25.6269 58.4506 24.9362 60.6147C24.4806 62.0209 23.8786 63.3754 23.1401 64.6559L23.0812 64.7519C21.5746 67.2702 21.7155 68.6933 21.946 69.4507C22.2286 70.3873 22.8339 71.0583 23.6785 71.9933L23.788 72.1155C24.2669 72.6463 24.5535 73.3227 24.6016 74.0361C24.6497 74.7494 24.4565 75.4582 24.0532 76.0485C28.4623 78.6106 33.648 79.4949 38.657 78.5388C38.3721 78.284 38.1138 78.0306 37.8906 77.8013C36.8827 76.7585 35.9057 75.4503 35.3353 74.2273C34.7729 73.0316 34.6106 71.4159 34.5337 70.3637C34.4763 69.568 34.4955 68.8018 34.5104 68.1726L34.5167 67.9471C34.5339 67.3791 34.5447 66.927 34.5322 66.4804C34.5025 65.5745 34.3621 64.9546 34.0098 64.3792C33.3289 64.1805 32.5882 63.8802 31.8853 63.4535C30.2136 62.4319 29.4203 60.7678 29.2243 59.2436C29.0336 57.7119 29.3765 56.1613 30.1952 54.8528C33.5334 49.5469 39.8154 49.091 44.5519 51.4437C45.9297 52.1278 47.6969 52.4051 49.5115 52.3899C50.9064 52.3829 52.295 52.203 53.6456 51.8542Z" fill="white"/>
<path d="M43.1356 54.2989C47.1169 56.2777 52.4201 55.5274 54.5741 54.9027L55.7222 54.5356C56.4647 59.4789 55.4334 64.5255 52.811 68.7812C50.3492 72.79 46.7704 75.6939 42.7273 77.3403C41.1797 76.9733 38.9868 74.5145 38.2217 72.8777C37.9454 72.2841 37.7929 71.233 37.7136 70.132C37.5332 67.6524 38.2574 65.1048 36.6579 62.6015C36.2539 61.9733 35.6313 61.5172 34.9106 61.3215C34.4455 61.1855 33.9683 60.9922 33.5464 60.7331C32.1771 59.8972 32.0398 57.9078 32.8939 56.5497C35.1158 53.0169 39.412 52.4486 43.1356 54.2989Z" fill="white"/>
</g>
<path fill-rule="evenodd" clip-rule="evenodd" d="M34.4578 7.20053C35.1177 7.20053 35.7776 7.22459 36.436 7.27199C37.0952 7.32011 37.7507 7.39157 38.4048 7.48709C39.0581 7.58261 39.7071 7.70147 40.3524 7.84439C40.997 7.98657 41.6357 8.15282 42.2686 8.34168C42.9016 8.53053 43.5265 8.74199 44.1441 8.97678C44.7617 9.21084 45.3698 9.46751 45.9684 9.74605C46.5671 10.0246 47.1555 10.3243 47.7323 10.6451C48.3098 10.9667 48.8742 11.3079 49.4269 11.6703C49.9789 12.0327 50.517 12.4141 51.042 12.8158C51.5662 13.2169 52.0759 13.6369 52.5696 14.0744C53.064 14.5126 53.5416 14.9683 54.0024 15.4416C54.464 15.9141 54.9073 16.4033 55.3324 16.9087C55.7582 17.4132 56.1651 17.9331 56.5523 18.4676C56.9402 19.0021 57.3084 19.5504 57.6562 20.1119C58.0048 20.6726 58.3315 21.2465 58.6384 21.8313C58.9447 22.4161 59.2291 23.0118 59.4923 23.617H51.6319C51.4452 23.3231 51.2512 23.0329 51.05 22.7486C50.8487 22.4642 50.6402 22.1849 50.4244 21.9115C50.2085 21.6373 49.9861 21.369 49.7565 21.1072C49.5268 20.8447 49.2905 20.588 49.0477 20.3379C48.8049 20.0878 48.5562 19.8443 48.301 19.6066C48.0458 19.3689 47.7841 19.1384 47.5172 18.9146C47.2503 18.6907 46.9776 18.4734 46.6991 18.2634C46.4205 18.0534 46.1369 17.8515 45.8481 17.6561C45.5594 17.4606 45.2662 17.2725 44.9673 17.0924C44.6691 16.9123 44.3665 16.7395 44.0587 16.5754C43.7518 16.4106 43.4404 16.2539 43.1254 16.1051C42.8097 15.9564 42.491 15.8164 42.168 15.6844C41.8457 15.5517 41.5198 15.4277 41.1909 15.3125C40.8621 15.1973 40.5303 15.0901 40.1956 14.9917C39.8617 14.8932 39.5248 14.8036 39.1857 14.7226C38.8467 14.6417 38.5054 14.5695 38.1627 14.5061C37.82 14.4419 37.4758 14.3879 37.1302 14.342C36.7846 14.2961 36.4382 14.2589 36.0904 14.2312C35.7433 14.2034 35.3955 14.1838 35.047 14.1743C34.6984 14.1641 34.3499 14.1626 34.0014 14.1706C33.6528 14.1787 33.305 14.1954 32.9572 14.2209C32.6094 14.2472 32.2623 14.2815 31.9167 14.3252C31.571 14.369 31.2261 14.4215 30.8834 14.4827C30.54 14.544 30.1987 14.614 29.859 14.6934C29.5192 14.7722 29.1823 14.8597 28.8469 14.9559C28.5122 15.0522 28.1797 15.1572 27.8501 15.2702C27.5205 15.384 27.1939 15.5057 26.8701 15.6355C26.5471 15.7661 26.227 15.9046 25.9105 16.0512C25.5948 16.1977 25.282 16.3523 24.9743 16.5149C24.6658 16.6775 24.3618 16.8481 24.0621 17.0261C23.7624 17.2047 23.4678 17.3906 23.1776 17.5839C22.8881 17.7778 22.603 17.9783 22.3237 18.1869C22.0437 18.3947 21.7696 18.6098 21.5012 18.8322C21.2322 19.0546 20.9697 19.2836 20.713 19.5191C20.4564 19.7553 20.2055 19.9974 19.9612 20.2461C19.717 20.4947 19.4793 20.7492 19.2481 21.0102C19.017 21.2713 18.7924 21.5381 18.5751 21.8101C18.3578 22.0828 18.1471 22.3606 17.9436 22.6443C17.7409 22.9272 17.5448 23.2159 17.3567 23.5091C17.1685 23.8022 16.9877 24.1004 16.8149 24.403C16.6414 24.7056 16.4766 25.0126 16.3191 25.324C16.1616 25.6346 16.0128 25.9496 15.8721 26.2682C15.7306 26.5876 15.5979 26.9099 15.4732 27.2351C15.3493 27.5611 15.2333 27.8892 15.1254 28.2209C15.0182 28.5527 14.9191 28.8867 14.8286 29.2236C14.7382 29.5604 14.6566 29.8995 14.5836 30.24C14.5107 30.5813 14.4466 30.9232 14.3919 31.2674C14.3365 31.6116 14.2898 31.9572 14.2526 32.3036C14.2147 32.6506 14.1862 32.9977 14.1666 33.3455C14.1469 33.6941 14.1359 34.0426 14.1345 34.3912C14.133 34.7397 14.1403 35.0882 14.1564 35.4361C14.1724 35.7846 14.1979 36.1317 14.2315 36.4788C14.2657 36.8258 14.3087 37.1715 14.3605 37.5164C14.4123 37.8613 14.4735 38.2047 14.5428 38.546C14.6128 38.8872 14.6908 39.227 14.7776 39.5646C14.8651 39.9022 14.9606 40.2376 15.0649 40.5701C15.1692 40.9026 15.2815 41.2322 15.4032 41.5596C15.5243 41.8863 15.6541 42.21 15.7919 42.5301C15.9297 42.8502 16.0755 43.1667 16.2294 43.4795C16.384 43.7916 16.5458 44.1007 16.7157 44.4048C16.8864 44.7089 17.0635 45.0086 17.2495 45.3039C17.4347 45.5992 17.6279 45.8894 17.8277 46.1745C18.0282 46.4603 18.236 46.7396 18.4511 47.0145C18.6655 47.2894 18.8872 47.5577 19.1161 47.821C16.9687 48.809 14.9358 49.9924 13.0159 51.372C12.0739 50.1783 11.2368 48.914 10.5061 47.5796C9.77625 46.246 9.16156 44.8598 8.66427 43.4226C8.16625 41.9854 7.79146 40.5169 7.54062 39.0163C7.28979 37.5164 7.1651 36.0055 7.16802 34.4845C7.16802 19.4184 19.3859 7.20053 34.4578 7.20053ZM49.7987 47.821C51.9469 48.809 53.9805 49.9924 55.9004 51.372C56.8425 50.1783 57.6789 48.914 58.4095 47.5796C59.1401 46.246 59.7541 44.8598 60.2514 43.4226C60.7494 41.9854 61.1234 40.5162 61.3743 39.0163C61.6258 37.5164 61.7498 36.0055 61.7469 34.4845C61.7469 33.67 61.7097 32.865 61.6404 32.068H45.7635V39.0338H54.2795C53.9054 40.6605 53.3396 42.2173 52.582 43.7041C51.8236 45.1908 50.8961 46.5631 49.7987 47.821Z" fill="white"/>
<path d="M26.2734 40.3156V48.5683C26.2734 48.7754 26.4411 48.9439 26.649 48.9439H35.5061V41.4714H39.6668V48.9439H42.1416C42.3501 48.9439 42.5178 48.7754 42.5178 48.5683V40.3156L34.4 32.2328L26.2734 40.3156ZM32.8782 44.9531H29.1238V41.4721H32.8782V44.9531Z" fill="white"/>
<mask id="mask1_278_971" style="mask-type:luminance" maskUnits="userSpaceOnUse" x="24" y="27" width="21" height="13">
<path d="M24.2188 27.58H44.5654V39.2773H24.2188V27.58Z" fill="white"/>
</mask>
<g mask="url(#mask1_278_971)">
<path d="M44.1652 37.3479L34.398 27.5815L29.7904 32.1884V30.1613C29.7904 29.6873 29.4062 29.303 28.9322 29.303C28.459 29.303 28.0747 29.6873 28.0747 30.1613V33.9048L24.6309 37.3479C24.2116 37.7672 24.2116 38.4461 24.6309 38.8653C24.8401 39.0746 25.1143 39.1789 25.3892 39.1789C25.6641 39.1789 25.9375 39.0746 26.1475 38.8653L34.3988 30.6155L42.6486 38.8653C43.0678 39.2846 43.7467 39.2846 44.1652 38.8653C44.5838 38.4461 44.5838 37.7665 44.1652 37.3479Z" fill="white"/>
</g>
<path d="M77.524 31.152C78.172 30.096 79.012 29.268 80.044 28.668C81.1 28.068 82.3 27.768 83.644 27.768V33.06H82.312C80.728 33.06 79.528 33.432 78.712 34.176C77.92 34.92 77.524 36.216 77.524 38.064V48H72.484V28.056H77.524V31.152ZM105.579 37.596C105.579 38.316 105.531 38.964 105.435 39.54H90.8547C90.9747 40.98 91.4787 42.108 92.3667 42.924C93.2547 43.74 94.3467 44.148 95.6427 44.148C97.5147 44.148 98.8467 43.344 99.6387 41.736H105.075C104.499 43.656 103.395 45.24 101.763 46.488C100.131 47.712 98.1267 48.324 95.7507 48.324C93.8307 48.324 92.1027 47.904 90.5667 47.064C89.0547 46.2 87.8667 44.988 87.0027 43.428C86.1627 41.868 85.7427 40.068 85.7427 38.028C85.7427 35.964 86.1627 34.152 87.0027 32.592C87.8427 31.032 89.0187 29.832 90.5307 28.992C92.0427 28.152 93.7827 27.732 95.7507 27.732C97.6467 27.732 99.3387 28.14 100.827 28.956C102.339 29.772 103.503 30.936 104.319 32.448C105.159 33.936 105.579 35.652 105.579 37.596ZM100.359 36.156C100.335 34.86 99.8667 33.828 98.9547 33.06C98.0427 32.268 96.9267 31.872 95.6067 31.872C94.3587 31.872 93.3027 32.256 92.4387 33.024C91.5987 33.768 91.0827 34.812 90.8907 36.156H100.359ZM127.797 37.596C127.797 38.316 127.749 38.964 127.653 39.54H113.073C113.193 40.98 113.697 42.108 114.585 42.924C115.473 43.74 116.565 44.148 117.861 44.148C119.733 44.148 121.065 43.344 121.857 41.736H127.293C126.717 43.656 125.613 45.24 123.981 46.488C122.349 47.712 120.345 48.324 117.969 48.324C116.049 48.324 114.321 47.904 112.785 47.064C111.273 46.2 110.085 44.988 109.221 43.428C108.381 41.868 107.961 40.068 107.961 38.028C107.961 35.964 108.381 34.152 109.221 32.592C110.061 31.032 111.237 29.832 112.749 28.992C114.261 28.152 116.001 27.732 117.969 27.732C119.865 27.732 121.557 28.14 123.045 28.956C124.557 29.772 125.721 30.936 126.537 32.448C127.377 33.936 127.797 35.652 127.797 37.596ZM122.577 36.156C122.553 34.86 122.085 33.828 121.173 33.06C120.261 32.268 119.145 31.872 117.825 31.872C116.577 31.872 115.521 32.256 114.657 33.024C113.817 33.768 113.301 34.812 113.109 36.156H122.577ZM142.528 27.768C144.904 27.768 146.824 28.524 148.288 30.036C149.752 31.524 150.484 33.612 150.484 36.3V48H145.444V36.984C145.444 35.4 145.048 34.188 144.256 33.348C143.464 32.484 142.384 32.052 141.016 32.052C139.624 32.052 138.52 32.484 137.704 33.348C136.912 34.188 136.516 35.4 136.516 36.984V48H131.476V28.056H136.516V30.54C137.188 29.676 138.04 29.004 139.072 28.524C140.128 28.02 141.28 27.768 142.528 27.768ZM184.699 22.872V48H179.659V37.308H168.895V48H163.855V22.872H168.895V33.204H179.659V22.872H184.699ZM188.364 37.956C188.364 35.94 188.76 34.152 189.552 32.592C190.368 31.032 191.46 29.832 192.828 28.992C194.22 28.152 195.768 27.732 197.472 27.732C198.96 27.732 200.256 28.032 201.36 28.632C202.488 29.232 203.388 29.988 204.06 30.9V28.056H209.136V48H204.06V45.084C203.412 46.02 202.512 46.8 201.36 47.424C200.232 48.024 198.924 48.324 197.436 48.324C195.756 48.324 194.22 47.892 192.828 47.028C191.46 46.164 190.368 44.952 189.552 43.392C188.76 41.808 188.364 39.996 188.364 37.956ZM204.06 38.028C204.06 36.804 203.82 35.76 203.34 34.896C202.86 34.008 202.212 33.336 201.396 32.88C200.58 32.4 199.704 32.16 198.768 32.16C197.832 32.16 196.968 32.388 196.176 32.844C195.384 33.3 194.736 33.972 194.232 34.86C193.752 35.724 193.512 36.756 193.512 37.956C193.512 39.156 193.752 40.212 194.232 41.124C194.736 42.012 195.384 42.696 196.176 43.176C196.992 43.656 197.856 43.896 198.768 43.896C199.704 43.896 200.58 43.668 201.396 43.212C202.212 42.732 202.86 42.06 203.34 41.196C203.82 40.308 204.06 39.252 204.06 38.028ZM222.374 43.356L227.414 28.056H232.778L225.398 48H219.278L211.934 28.056H217.334L222.374 43.356ZM254.149 37.596C254.149 38.316 254.101 38.964 254.005 39.54H239.425C239.545 40.98 240.049 42.108 240.937 42.924C241.825 43.74 242.917 44.148 244.213 44.148C246.085 44.148 247.417 43.344 248.209 41.736H253.645C253.069 43.656 251.965 45.24 250.333 46.488C248.701 47.712 246.697 48.324 244.321 48.324C242.401 48.324 240.673 47.904 239.137 47.064C237.625 46.2 236.437 44.988 235.573 43.428C234.733 41.868 234.313 40.068 234.313 38.028C234.313 35.964 234.733 34.152 235.573 32.592C236.413 31.032 237.589 29.832 239.101 28.992C240.613 28.152 242.353 27.732 244.321 27.732C246.217 27.732 247.909 28.14 249.397 28.956C250.909 29.772 252.073 30.936 252.889 32.448C253.729 33.936 254.149 35.652 254.149 37.596ZM248.929 36.156C248.905 34.86 248.437 33.828 247.525 33.06C246.613 32.268 245.497 31.872 244.177 31.872C242.929 31.872 241.873 32.256 241.009 33.024C240.169 33.768 239.653 34.812 239.461 36.156H248.929ZM268.88 27.768C271.256 27.768 273.176 28.524 274.64 30.036C276.104 31.524 276.836 33.612 276.836 36.3V48H271.796V36.984C271.796 35.4 271.4 34.188 270.608 33.348C269.816 32.484 268.736 32.052 267.368 32.052C265.976 32.052 264.872 32.484 264.056 33.348C263.264 34.188 262.868 35.4 262.868 36.984V48H257.828V28.056H262.868V30.54C263.54 29.676 264.392 29.004 265.424 28.524C266.48 28.02 267.632 27.768 268.88 27.768Z" fill="white"/>
</svg>
