<svg width="64" height="64" viewBox="0 0 64 64" fill="none" xmlns="http://www.w3.org/2000/svg">
<path d="M31.904 18.5867C31.904 18.5867 23.704 19.4027 19.4106 15.8267C15.1173 12.248 16.096 5.41338 16.096 5.41338C16.096 5.41338 24.296 4.59738 28.592 8.17338C32.8853 11.752 31.904 18.5867 31.904 18.5867Z" stroke="#0C4B36" stroke-width="5.33333" stroke-linecap="round" stroke-linejoin="round"/>
<path d="M50.668 37.3334C51.3752 37.3334 52.0535 37.0524 52.5536 36.5523C53.0537 36.0522 53.3346 35.374 53.3346 34.6667V29.3334C53.3346 28.6261 53.0537 27.9479 52.5536 27.4478C52.0535 26.9477 51.3752 26.6667 50.668 26.6667H13.3346C12.6274 26.6667 11.9491 26.9477 11.449 27.4478C10.9489 27.9479 10.668 28.6261 10.668 29.3334V34.6667C10.668 35.374 10.9489 36.0522 11.449 36.5523C11.9491 37.0524 12.6274 37.3334 13.3346 37.3334M50.668 37.3334H13.3346M50.668 37.3334L45.3346 58.6667H18.668L13.3346 37.3334M32.0973 18.5867C32.0973 18.5867 40.2973 19.4027 44.5906 15.8267C48.884 12.248 47.9053 5.41338 47.9053 5.41338C47.9053 5.41338 39.7053 4.59738 35.412 8.17338C31.1186 11.752 32.0973 18.5867 32.0973 18.5867Z" stroke="#0C4B36" stroke-width="5.33333" stroke-linecap="round" stroke-linejoin="round"/>
</svg>
