<svg width="21" height="18" viewBox="0 0 21 18" fill="none" xmlns="http://www.w3.org/2000/svg">
<path d="M17.1897 3.76058C16.4189 4.521 16.221 5.61475 16.5856 6.55225L13.5439 9.59392V7.43767C13.5439 6.86475 13.0752 6.396 12.5022 6.396H11.4293C11.4606 6.21892 11.4606 6.05225 11.4606 5.87517C11.4606 2.7085 8.89808 0.145999 5.73141 0.145999C4.5514 0.144892 3.39987 0.508375 2.43433 1.18672C1.46879 1.86507 0.736401 2.82516 0.337354 3.93565C-0.0616924 5.04614 -0.10791 6.2528 0.205023 7.39056C0.517956 8.52832 1.17476 9.54161 2.08558 10.2918V16.8127C2.08558 17.3856 2.55433 17.8543 3.12725 17.8543H12.5022C13.0752 17.8543 13.5439 17.3856 13.5439 16.8127V12.5314L18.0543 8.021C18.9918 8.38558 20.0856 8.19808 20.8356 7.43767L17.1897 3.76058ZM2.13766 6.396C2.11683 6.21892 2.08558 6.05225 2.08558 5.87517C2.08558 3.86475 3.721 2.22933 5.73141 2.22933C7.74183 2.22933 9.37725 3.86475 9.37725 5.87517C9.37725 6.05225 9.34599 6.21892 9.32516 6.396H2.13766Z" fill="#0C4B36"/>
</svg>
