<svg width="20" height="20" viewBox="0 0 20 20" fill="none" xmlns="http://www.w3.org/2000/svg">
<path d="M19.0738 9.8493L10.2244 1.00633C10.1607 0.942487 10.085 0.891837 10.0017 0.857278C9.91838 0.82272 9.82907 0.804932 9.73887 0.804932C9.64867 0.804932 9.55935 0.82272 9.47604 0.857278C9.39272 0.891837 9.31704 0.942487 9.25332 1.00633L0.403906 9.8493C0.146094 10.1071 0 10.4573 0 10.8225C0 11.5809 0.616601 12.1975 1.375 12.1975H2.30742V18.5075C2.30742 18.8878 2.61465 19.195 2.99492 19.195H8.36387V14.3825H10.7701V19.195H16.4828C16.8631 19.195 17.1703 18.8878 17.1703 18.5075V12.1975H18.1027C18.468 12.1975 18.8182 12.0536 19.076 11.7936C19.6109 11.2565 19.6109 10.3864 19.0738 9.8493Z" fill="#0C4B36"/>
</svg>
