<svg width="40" height="40" viewBox="0 0 40 40" fill="none" xmlns="http://www.w3.org/2000/svg">
<path d="M21.713 3.335C22.9292 3.33033 24.1454 3.34255 25.3613 3.37166L25.6847 3.38333C26.058 3.39666 26.4263 3.41333 26.8713 3.43333C28.6447 3.51666 29.8547 3.79666 30.9163 4.20833C32.0163 4.63166 32.943 5.205 33.8697 6.13166C34.7169 6.96434 35.3727 7.97158 35.7913 9.08333C36.203 10.145 36.483 11.3567 36.5663 13.13C36.5863 13.5733 36.603 13.9433 36.6163 14.3167L36.6263 14.64C36.6559 15.8553 36.6687 17.071 36.6647 18.2867L36.6663 19.53V21.7133C36.6704 22.9296 36.6577 24.1458 36.628 25.3617L36.618 25.685C36.6047 26.0583 36.588 26.4267 36.568 26.8717C36.4847 28.645 36.2013 29.855 35.7913 30.9167C35.3741 32.0296 34.7182 33.0377 33.8697 33.87C33.0363 34.7172 32.0285 35.3729 30.9163 35.7917C29.8547 36.2033 28.6447 36.4833 26.8713 36.5667C26.4263 36.5867 26.058 36.6033 25.6847 36.6167L25.3613 36.6267C24.1454 36.6563 22.9292 36.6691 21.713 36.665L20.4697 36.6667H18.288C17.0718 36.6708 15.8555 36.658 14.6397 36.6283L14.3163 36.6183C13.9207 36.604 13.5251 36.5873 13.1297 36.5683C11.3563 36.485 10.1463 36.2017 9.08299 35.7917C7.9708 35.3739 6.96339 34.718 6.13133 33.87C5.28307 33.0371 4.6267 32.0293 4.20799 30.9167C3.79633 29.855 3.51633 28.645 3.43299 26.8717C3.41443 26.4762 3.39776 26.0806 3.38299 25.685L3.37466 25.3617C3.34393 24.1458 3.33004 22.9296 3.33299 21.7133V18.2867C3.32834 17.071 3.34056 15.8553 3.36966 14.64L3.38133 14.3167C3.39466 13.9433 3.41133 13.5733 3.43133 13.13C3.51466 11.355 3.79466 10.1467 4.20633 9.08333C4.62528 7.97103 5.28293 6.96407 6.13299 6.13333C6.96448 5.28458 7.97126 4.62762 9.08299 4.20833C10.1463 3.79666 11.3547 3.51666 13.1297 3.43333L14.3163 3.38333L14.6397 3.375C15.855 3.34429 17.0706 3.3304 18.2863 3.33333L21.713 3.335ZM19.9997 11.6683C18.8955 11.6527 17.7993 11.8567 16.7746 12.2684C15.75 12.6802 14.8174 13.2915 14.0311 14.0668C13.2447 14.842 12.6203 15.7659 12.1941 16.7846C11.7679 17.8033 11.5485 18.8966 11.5485 20.0008C11.5485 21.1051 11.7679 22.1984 12.1941 23.2171C12.6203 24.2358 13.2447 25.1596 14.0311 25.9349C14.8174 26.7102 15.75 27.3215 16.7746 27.7332C17.7993 28.145 18.8955 28.3489 19.9997 28.3333C22.2098 28.3333 24.3294 27.4554 25.8922 25.8926C27.455 24.3298 28.333 22.2101 28.333 20C28.333 17.7899 27.455 15.6702 25.8922 14.1074C24.3294 12.5446 22.2098 11.6683 19.9997 11.6683ZM19.9997 15.0017C20.6638 14.9894 21.3238 15.1097 21.941 15.3553C22.5582 15.601 23.1202 15.9672 23.5943 16.4326C24.0684 16.8979 24.4449 17.4531 24.7021 18.0656C24.9592 18.6781 25.0917 19.3357 25.0918 20C25.0919 20.6643 24.9596 21.3219 24.7027 21.9345C24.4458 22.5471 24.0694 23.1024 23.5955 23.5679C23.1216 24.0334 22.5596 24.3998 21.9425 24.6457C21.3254 24.8916 20.6655 25.012 20.0013 25C18.6752 25 17.4035 24.4732 16.4658 23.5355C15.5281 22.5979 15.0013 21.3261 15.0013 20C15.0013 18.6739 15.5281 17.4021 16.4658 16.4645C17.4035 15.5268 18.6752 15 20.0013 15L19.9997 15.0017ZM28.7497 9.16833C28.212 9.18985 27.7035 9.41858 27.3307 9.80662C26.9579 10.1947 26.7496 10.7119 26.7496 11.25C26.7496 11.7881 26.9579 12.3053 27.3307 12.6934C27.7035 13.0814 28.212 13.3101 28.7497 13.3317C29.3022 13.3317 29.8321 13.1122 30.2228 12.7215C30.6135 12.3308 30.833 11.8009 30.833 11.2483C30.833 10.6958 30.6135 10.1659 30.2228 9.77519C29.8321 9.38449 29.3022 9.165 28.7497 9.165V9.16833Z" fill="#F8F8F8"/>
</svg>
