<svg width="18" height="16" viewBox="0 0 18 16" fill="none" xmlns="http://www.w3.org/2000/svg">
<path d="M15.25 6.125C15.9128 6.12417 16.5482 5.86052 17.0169 5.39185C17.4855 4.92319 17.7492 4.28779 17.75 3.625V1.75H15.875C15.2351 1.75095 14.6202 1.99853 14.1581 2.44125C13.8343 1.85377 13.359 1.36381 12.7816 1.0224C12.2042 0.680984 11.5458 0.500591 10.875 0.5H9V2.375C9.00116 3.36921 9.39662 4.32236 10.0996 5.02537C10.8026 5.72838 11.7558 6.12384 12.75 6.125H13.375V14.25H5.875V11.125H6.5C7.16279 11.1242 7.79819 10.8605 8.26685 10.3919C8.73552 9.92319 8.99917 9.28779 9 8.625V6.75H7.125C6.48509 6.75095 5.87017 6.99853 5.40812 7.44125C5.08435 6.85377 4.609 6.36381 4.03159 6.0224C3.45418 5.68098 2.7958 5.50059 2.125 5.5H0.25V7.375C0.251158 8.36921 0.646618 9.32236 1.34963 10.0254C2.05264 10.7284 3.00579 11.1238 4 11.125H4.625V14.25H0.25V15.5H17.75V14.25H14.625V6.125H15.25ZM14.625 4.25C14.6253 3.91858 14.7571 3.60083 14.9915 3.36648C15.2258 3.13213 15.5436 3.00033 15.875 3H16.5V3.625C16.4997 3.95642 16.3679 4.27417 16.1335 4.50852C15.8992 4.74287 15.5814 4.87467 15.25 4.875H14.625V4.25ZM5.875 9.25C5.87533 8.91858 6.00713 8.60083 6.24148 8.36648C6.47583 8.13213 6.79358 8.00033 7.125 8H7.75V8.625C7.74967 8.95642 7.61787 9.27417 7.38352 9.50852C7.14917 9.74287 6.83142 9.87467 6.5 9.875H5.875V9.25ZM4.625 9.875H4C3.33721 9.87417 2.70181 9.61052 2.23315 9.14185C1.76448 8.67319 1.50083 8.03779 1.5 7.375V6.75H2.125C2.78779 6.75083 3.42319 7.01448 3.89185 7.48315C4.36052 7.95181 4.62417 8.58721 4.625 9.25V9.875ZM13.375 4.875H12.75C12.0872 4.87417 11.4518 4.61052 10.9831 4.14185C10.5145 3.67319 10.2508 3.03779 10.25 2.375V1.75H10.875C11.5378 1.75083 12.1732 2.01448 12.6419 2.48315C13.1105 2.95181 13.3742 3.58721 13.375 4.25V4.875Z" fill="#0C4B36"/>
</svg>
