<svg width="21" height="21" viewBox="0 0 21 21" fill="none" xmlns="http://www.w3.org/2000/svg">
<path d="M10.5015 17.7916C10.7777 17.7916 11.0427 17.9013 11.238 18.0967C11.4334 18.292 11.5431 18.557 11.5431 18.8333V19.8749C11.5431 20.1512 11.4334 20.4161 11.238 20.6115C11.0427 20.8068 10.7777 20.9166 10.5015 20.9166C10.2252 20.9166 9.96023 20.8068 9.76488 20.6115C9.56953 20.4161 9.45978 20.1512 9.45978 19.8749V18.8333C9.45978 18.557 9.56953 18.292 9.76488 18.0967C9.96023 17.9013 10.2252 17.7916 10.5015 17.7916ZM17.1306 15.6562L17.8671 16.3926C18.0568 16.5891 18.1618 16.8522 18.1594 17.1253C18.1571 17.3985 18.0475 17.6597 17.8544 17.8529C17.6613 18.046 17.4 18.1555 17.1269 18.1579C16.8537 18.1603 16.5906 18.0553 16.3942 17.8655L15.6577 17.1291C15.468 16.9326 15.363 16.6695 15.3653 16.3964C15.3677 16.1233 15.4773 15.862 15.6704 15.6689C15.8635 15.4757 16.1248 15.3662 16.3979 15.3638C16.671 15.3614 16.9342 15.4664 17.1306 15.6562ZM3.87228 15.6562C4.05974 15.4693 4.31128 15.3609 4.57581 15.3528C4.84034 15.3447 5.09803 15.4376 5.29653 15.6127C5.49504 15.7877 5.61948 16.0317 5.64457 16.2952C5.66967 16.5587 5.59355 16.8218 5.43166 17.0312L5.3452 17.1291L4.60874 17.8655C4.42129 18.0524 4.16975 18.1608 3.90522 18.1689C3.64069 18.177 3.383 18.0841 3.18449 17.909C2.98599 17.734 2.86155 17.49 2.83645 17.2265C2.81135 16.963 2.88748 16.6999 3.04937 16.4905L3.13583 16.3926L3.87228 15.6562ZM10.5015 4.24992C12.1591 4.24992 13.7488 4.9084 14.9209 6.0805C16.093 7.2526 16.7515 8.84232 16.7515 10.4999C16.7515 12.1575 16.093 13.7472 14.9209 14.9193C13.7488 16.0914 12.1591 16.7499 10.5015 16.7499C8.84385 16.7499 7.25414 16.0914 6.08203 14.9193C4.90993 13.7472 4.25145 12.1575 4.25145 10.4999C4.25145 8.84232 4.90993 7.2526 6.08203 6.0805C7.25414 4.9084 8.84385 4.24992 10.5015 4.24992ZM2.16812 9.45825C2.43362 9.45855 2.68898 9.56021 2.88204 9.74247C3.0751 9.92473 3.19128 10.1738 3.20684 10.4389C3.2224 10.7039 3.13616 10.9649 2.96576 11.1685C2.79535 11.3721 2.55363 11.5029 2.28999 11.5343L2.16812 11.5416H1.12645C0.860951 11.5413 0.605583 11.4396 0.412525 11.2574C0.219466 11.0751 0.103289 10.826 0.0877292 10.561C0.0721697 10.2959 0.158403 10.0349 0.328809 9.83134C0.499216 9.62775 0.740934 9.4969 1.00458 9.46554L1.12645 9.45825H2.16812ZM19.8765 9.45825C20.1527 9.45825 20.4177 9.568 20.613 9.76335C20.8084 9.9587 20.9181 10.2237 20.9181 10.4999C20.9181 10.7762 20.8084 11.0411 20.613 11.2365C20.4177 11.4318 20.1527 11.5416 19.8765 11.5416H18.8348C18.5585 11.5416 18.2936 11.4318 18.0982 11.2365C17.9029 11.0411 17.7931 10.7762 17.7931 10.4999C17.7931 10.2237 17.9029 9.9587 18.0982 9.76335C18.2936 9.568 18.5585 9.45825 18.8348 9.45825H19.8765ZM3.13583 3.13429C3.31519 2.95494 3.55384 2.8472 3.80699 2.83128C4.06014 2.81537 4.31041 2.89237 4.51083 3.04784L4.60874 3.13429L5.3452 3.87075C5.53202 4.05821 5.64049 4.30975 5.64856 4.57428C5.65664 4.83881 5.56373 5.0965 5.38869 5.295C5.21366 5.49351 4.96963 5.61795 4.70616 5.64304C4.4427 5.66814 4.17957 5.59201 3.9702 5.43013L3.87228 5.34367L3.13583 4.60721C2.94054 4.41187 2.83084 4.14697 2.83084 3.87075C2.83084 3.59454 2.94054 3.32964 3.13583 3.13429ZM17.8671 3.13429C18.0624 3.32964 18.1721 3.59454 18.1721 3.87075C18.1721 4.14697 18.0624 4.41187 17.8671 4.60721L17.1306 5.34367C17.0345 5.44316 16.9196 5.52252 16.7925 5.57711C16.6654 5.6317 16.5287 5.66044 16.3904 5.66164C16.2521 5.66284 16.1149 5.63648 15.9869 5.58411C15.8589 5.53173 15.7426 5.45439 15.6448 5.35658C15.547 5.25878 15.4696 5.14247 15.4173 5.01445C15.3649 4.88644 15.3385 4.74927 15.3397 4.61096C15.3409 4.47265 15.3697 4.33596 15.4243 4.20887C15.4789 4.08179 15.5582 3.96684 15.6577 3.87075L16.3942 3.13429C16.5895 2.93901 16.8544 2.82931 17.1306 2.82931C17.4068 2.82931 17.6717 2.93901 17.8671 3.13429ZM10.5015 0.083252C10.7777 0.083252 11.0427 0.192999 11.238 0.388349C11.4334 0.583699 11.5431 0.848651 11.5431 1.12492V2.16659C11.5431 2.44285 11.4334 2.7078 11.238 2.90315C11.0427 3.09851 10.7777 3.20825 10.5015 3.20825C10.2252 3.20825 9.96023 3.09851 9.76488 2.90315C9.56953 2.7078 9.45978 2.44285 9.45978 2.16659V1.12492C9.45978 0.848651 9.56953 0.583699 9.76488 0.388349C9.96023 0.192999 10.2252 0.083252 10.5015 0.083252Z" fill="#0C4B36"/>
</svg>
