<svg width="401" height="400" viewBox="0 0 401 400" fill="none" xmlns="http://www.w3.org/2000/svg">
<mask id="mask0_67_1738" style="mask-type:alpha" maskUnits="userSpaceOnUse" x="81" y="264" width="234" height="90">
<path fill-rule="evenodd" clip-rule="evenodd" d="M278.409 280.883C266.259 275.538 253.705 271.442 240.742 268.6C227.776 265.758 214.659 264.225 201.388 264H193.967C183.913 264.175 173.926 265.1 164.009 266.783C154.097 268.462 144.363 270.879 134.813 274.029C125.263 277.179 116.001 281.029 107.034 285.579C98.0633 290.125 89.4883 295.321 81.3008 301.163C83.1258 303.208 84.9966 305.2 86.9258 307.146C88.8549 309.092 90.8299 310.983 92.8591 312.825C94.8841 314.663 96.9591 316.45 99.0799 318.179C101.201 319.913 103.367 321.588 105.576 323.204C107.784 324.821 110.034 326.379 112.326 327.875C114.617 329.375 116.947 330.813 119.313 332.188C121.68 333.562 124.08 334.875 126.517 336.125C128.955 337.375 131.422 338.558 133.922 339.679C136.417 340.8 138.942 341.85 141.497 342.838C144.051 343.825 146.63 344.742 149.234 345.596C151.834 346.446 154.459 347.225 157.101 347.938C159.747 348.65 162.405 349.292 165.084 349.867C167.759 350.438 170.451 350.942 173.155 351.371C175.859 351.8 178.572 352.158 181.292 352.45C184.017 352.738 186.742 352.95 189.48 353.096C192.213 353.242 194.947 353.313 197.688 353.313C200.426 353.313 203.159 353.242 205.892 353.096C208.63 352.95 211.355 352.738 214.08 352.45C216.801 352.158 219.513 351.8 222.217 351.371C224.922 350.942 227.613 350.438 230.288 349.867C232.967 349.292 235.626 348.65 238.272 347.938C240.913 347.225 243.538 346.446 246.138 345.592C248.742 344.742 251.322 343.825 253.876 342.838C256.43 341.85 258.955 340.8 261.455 339.679C263.951 338.558 266.417 337.375 268.855 336.125C271.292 334.875 273.692 333.562 276.059 332.188C278.426 330.813 280.755 329.375 283.047 327.875C285.338 326.379 287.588 324.821 289.797 323.204C292.005 321.588 294.172 319.913 296.292 318.179C298.413 316.45 300.488 314.663 302.513 312.825C304.542 310.983 306.517 309.092 308.447 307.146C310.376 305.2 312.247 303.208 314.072 301.163C302.88 293.175 290.992 286.417 278.409 280.883Z" fill="#D9D9D9"/>
</mask>
<g mask="url(#mask0_67_1738)">
<path d="M124.739 304.485C137.727 326.539 116.803 360.61 116.803 360.61C95.3685 396.349 113.983 414.391 122.908 424.289C102.078 407.602 87.3226 384.519 80.9221 358.607C74.5217 332.695 76.8321 305.397 87.4965 280.93C96.5845 281.909 114.842 287.678 124.739 304.485Z" fill="#FBBC05"/>
<path d="M307.041 296.31L313.3 294.284C313.819 294.117 314.344 293.974 314.875 293.854C306.24 265.587 287.553 241.46 262.344 226.029C205.851 191.336 132.101 208.411 96.54 264.043C109.699 267.094 128.849 275.563 140.43 295.243C151.072 313.32 146.934 334.004 142.987 346.37C140.383 354.405 136.944 362.145 132.724 369.462L132.387 370.011C123.778 384.401 124.583 392.533 125.9 396.861C127.515 402.213 130.974 406.047 135.8 411.39L136.426 412.088C139.163 415.122 140.8 418.987 141.075 423.063C141.35 427.139 140.246 431.19 137.941 434.563C163.136 449.203 192.769 454.256 221.392 448.793C219.763 447.337 218.287 445.889 217.012 444.579C211.253 438.62 205.67 431.145 202.41 424.156C199.197 417.323 198.27 408.091 197.83 402.078C197.502 397.531 197.612 393.153 197.696 389.558L197.733 388.269C197.831 385.023 197.893 382.44 197.821 379.888C197.652 374.711 196.849 371.169 194.836 367.881C190.945 366.746 186.713 365.03 182.696 362.591C173.144 356.754 168.61 347.244 167.49 338.535C166.401 329.782 168.36 320.921 173.039 313.444C192.114 283.125 228.011 280.52 255.077 293.964C262.95 297.873 273.048 299.458 283.417 299.371C291.388 299.331 299.323 298.303 307.041 296.31Z" fill="#FBBC05"/>
<path d="M246.98 310.28C269.73 321.587 300.034 317.299 312.343 313.73L318.904 311.632C323.146 339.879 317.253 368.717 302.268 393.035C288.201 415.942 267.751 432.537 244.647 441.944C235.804 439.848 223.273 425.797 218.901 416.444C217.322 413.052 216.451 407.045 215.997 400.754C214.967 386.585 219.105 372.028 209.965 357.723C207.656 354.133 204.099 351.527 199.98 350.408C197.322 349.631 194.595 348.527 192.185 347.046C184.36 342.269 183.576 330.902 188.456 323.141C201.153 302.954 225.702 299.706 246.98 310.28Z" fill="#FBBC05"/>
</g>
<path fill-rule="evenodd" clip-rule="evenodd" d="M197.391 41.1459C201.162 41.1459 204.933 41.2834 208.695 41.5542C212.462 41.8292 216.208 42.2375 219.945 42.7834C223.679 43.3292 227.387 44.0084 231.075 44.825C234.758 45.6375 238.408 46.5875 242.025 47.6667C245.641 48.7459 249.212 49.9542 252.741 51.2959C256.27 52.6334 259.745 54.1 263.166 55.6917C266.587 57.2834 269.95 58.9959 273.245 60.8292C276.545 62.6667 279.77 64.6167 282.929 66.6875C286.083 68.7584 289.158 70.9375 292.158 73.2334C295.154 75.525 298.066 77.925 300.887 80.425C303.712 82.9292 306.441 85.5334 309.075 88.2375C311.712 90.9375 314.245 93.7334 316.675 96.6209C319.108 99.5042 321.433 102.475 323.645 105.529C325.862 108.583 327.966 111.717 329.954 114.925C331.945 118.129 333.812 121.408 335.566 124.75C337.316 128.092 338.941 131.496 340.445 134.954H295.529C294.462 133.275 293.354 131.617 292.204 129.992C291.054 128.367 289.862 126.771 288.629 125.208C287.395 123.642 286.125 122.108 284.812 120.613C283.5 119.113 282.15 117.646 280.762 116.217C279.375 114.788 277.954 113.396 276.495 112.038C275.037 110.679 273.541 109.363 272.016 108.083C270.491 106.804 268.933 105.563 267.341 104.363C265.75 103.163 264.129 102.008 262.479 100.892C260.829 99.775 259.154 98.7 257.445 97.6709C255.741 96.6417 254.012 95.6542 252.254 94.7167C250.5 93.775 248.72 92.8792 246.92 92.0292C245.116 91.1792 243.295 90.3792 241.45 89.625C239.608 88.8667 237.745 88.1584 235.866 87.5C233.987 86.8417 232.091 86.2292 230.179 85.6667C228.27 85.1042 226.345 84.5917 224.408 84.1292C222.47 83.6667 220.52 83.2542 218.562 82.8917C216.604 82.525 214.637 82.2167 212.662 81.9542C210.687 81.6917 208.708 81.4792 206.72 81.3209C204.737 81.1625 202.75 81.05 200.758 80.9959C198.766 80.9375 196.775 80.9292 194.783 80.975C192.791 81.0209 190.804 81.1167 188.816 81.2625C186.829 81.4125 184.845 81.6084 182.87 81.8584C180.895 82.1084 178.925 82.4084 176.966 82.7584C175.004 83.1084 173.054 83.5084 171.112 83.9625C169.17 84.4125 167.245 84.9125 165.329 85.4625C163.416 86.0125 161.516 86.6125 159.633 87.2584C157.75 87.9084 155.883 88.6042 154.033 89.3459C152.187 90.0917 150.358 90.8834 148.55 91.7209C146.745 92.5584 144.958 93.4417 143.2 94.3709C141.437 95.3 139.7 96.275 137.987 97.2917C136.275 98.3125 134.591 99.375 132.933 100.479C131.279 101.588 129.65 102.733 128.054 103.925C126.454 105.113 124.887 106.342 123.354 107.613C121.816 108.883 120.316 110.192 118.85 111.538C117.383 112.888 115.95 114.271 114.554 115.692C113.158 117.113 111.8 118.567 110.479 120.058C109.158 121.55 107.875 123.075 106.633 124.629C105.391 126.188 104.187 127.775 103.025 129.396C101.866 131.013 100.745 132.663 99.6703 134.338C98.5953 136.013 97.562 137.717 96.5745 139.446C95.5828 141.175 94.6412 142.929 93.7412 144.708C92.8412 146.483 91.9912 148.283 91.187 150.104C90.3787 151.929 89.6203 153.771 88.9078 155.629C88.1995 157.492 87.537 159.367 86.9203 161.263C86.3078 163.158 85.7412 165.067 85.2245 166.992C84.7078 168.917 84.2412 170.854 83.8245 172.8C83.4078 174.75 83.0412 176.704 82.7287 178.671C82.412 180.638 82.1453 182.613 81.9328 184.592C81.7162 186.575 81.5537 188.558 81.4412 190.546C81.3287 192.538 81.2662 194.529 81.2578 196.521C81.2495 198.513 81.2912 200.504 81.3828 202.492C81.4745 204.483 81.6203 206.467 81.812 208.45C82.0078 210.433 82.2537 212.408 82.5495 214.379C82.8453 216.35 83.1953 218.313 83.5912 220.263C83.9912 222.213 84.437 224.154 84.9328 226.083C85.4328 228.013 85.9787 229.929 86.5745 231.829C87.1703 233.729 87.812 235.613 88.5078 237.483C89.1995 239.35 89.9412 241.2 90.7287 243.029C91.5162 244.858 92.3495 246.667 93.2287 248.454C94.112 250.238 95.037 252.004 96.0078 253.742C96.9828 255.479 97.9953 257.192 99.0578 258.879C100.116 260.567 101.22 262.225 102.362 263.854C103.508 265.488 104.695 267.083 105.925 268.654C107.15 270.225 108.416 271.758 109.725 273.263C97.4537 278.908 85.837 285.671 74.8662 293.554C69.4828 286.733 64.6995 279.508 60.5245 271.883C56.3537 264.263 52.8412 256.342 49.9995 248.129C47.1537 239.917 45.012 231.525 43.5787 222.95C42.1453 214.379 41.4328 205.746 41.4495 197.054C41.4495 110.963 111.266 41.1459 197.391 41.1459ZM285.054 273.263C297.329 278.908 308.95 285.671 319.92 293.554C325.304 286.733 330.083 279.508 334.258 271.883C338.433 264.263 341.941 256.342 344.783 248.129C347.629 239.917 349.766 231.521 351.2 222.95C352.637 214.379 353.345 205.746 353.329 197.054C353.329 192.4 353.116 187.8 352.72 183.246H261.995V223.05H310.658C308.52 232.346 305.287 241.242 300.958 249.738C296.625 258.233 291.325 266.075 285.054 273.263Z" fill="#0C4B36"/>
<path d="M150.645 230.375V277.533C150.645 278.717 151.603 279.679 152.79 279.679H203.403V236.979H227.178V279.679H241.32C242.511 279.679 243.47 278.717 243.47 277.533V230.375L197.082 184.188L150.645 230.375ZM188.386 256.875H166.932V236.983H188.386V256.875Z" fill="#FBBC05"/>
<mask id="mask1_67_1738" style="mask-type:luminance" maskUnits="userSpaceOnUse" x="138" y="157" width="118" height="68">
<path d="M138.898 157.6H255.165V224.442H138.898V157.6Z" fill="white"/>
</mask>
<g mask="url(#mask1_67_1738)">
<path d="M252.871 213.417L197.059 157.608L170.729 183.933V172.35C170.729 169.642 168.534 167.446 165.825 167.446C163.121 167.446 160.925 169.642 160.925 172.35V193.742L141.246 213.417C138.85 215.812 138.85 219.692 141.246 222.087C142.442 223.283 144.009 223.879 145.579 223.879C147.15 223.879 148.713 223.283 149.913 222.087L197.063 174.946L244.204 222.087C246.6 224.483 250.479 224.483 252.871 222.087C255.263 219.692 255.263 215.808 252.871 213.417Z" fill="#FBBC05"/>
</g>
</svg>
