<svg width="204" height="42" viewBox="0 0 204 42" fill="none" xmlns="http://www.w3.org/2000/svg">
<mask id="mask0_252_475" style="mask-type:alpha" maskUnits="userSpaceOnUse" x="8" y="27" width="25" height="11">
<path fill-rule="evenodd" clip-rule="evenodd" d="M29.1807 29.4927C27.905 28.9314 26.5868 28.5013 25.2257 28.203C23.8643 27.9046 22.487 27.7436 21.0936 27.72H20.3144C19.2587 27.7383 18.21 27.8355 17.1687 28.0122C16.1279 28.1885 15.1059 28.4423 14.1032 28.773C13.1004 29.1038 12.1279 29.508 11.1864 29.9858C10.2444 30.4631 9.34406 31.0087 8.48438 31.622C8.676 31.8368 8.87244 32.046 9.075 32.2503C9.27756 32.4546 9.48494 32.6532 9.698 32.8466C9.91062 33.0395 10.1285 33.2272 10.3512 33.4088C10.5739 33.5908 10.8014 33.7667 11.0333 33.9364C11.2651 34.1062 11.5014 34.2698 11.742 34.4268C11.9826 34.5843 12.2272 34.7353 12.4757 34.8797C12.7242 35.024 12.9762 35.1618 13.2321 35.2931C13.4881 35.4243 13.7471 35.5486 14.0096 35.6663C14.2716 35.784 14.5368 35.8942 14.8049 35.9979C15.0731 36.1016 15.3439 36.1978 15.6174 36.2875C15.8904 36.3768 16.166 36.4586 16.4434 36.5334C16.7212 36.6082 17.0003 36.6756 17.2816 36.736C17.5625 36.7959 17.8451 36.8488 18.1291 36.8939C18.413 36.939 18.6978 36.9766 18.9835 37.0072C19.2696 37.0374 19.5557 37.0597 19.8432 37.075C20.1302 37.0903 20.4172 37.0978 20.7051 37.0978C20.9925 37.0978 21.2795 37.0903 21.5665 37.075C21.8539 37.0597 22.1401 37.0374 22.4262 37.0072C22.7119 36.9766 22.9967 36.939 23.2806 36.8939C23.5646 36.8488 23.8472 36.7959 24.1281 36.736C24.4094 36.6756 24.6885 36.6082 24.9663 36.5334C25.2437 36.4586 25.5193 36.3768 25.7923 36.2871C26.0658 36.1978 26.3366 36.1016 26.6047 35.9979C26.8729 35.8942 27.1381 35.784 27.4006 35.6663C27.6626 35.5486 27.9216 35.4243 28.1776 35.2931C28.4335 35.1618 28.6855 35.024 28.934 34.8797C29.1825 34.7353 29.4271 34.5843 29.6677 34.4268C29.9083 34.2698 30.1446 34.1062 30.3764 33.9364C30.6083 33.7667 30.8358 33.5908 31.0585 33.4088C31.2812 33.2272 31.4991 33.0395 31.7117 32.8466C31.9248 32.6532 32.1321 32.4546 32.3347 32.2503C32.5373 32.046 32.7337 31.8368 32.9253 31.622C31.7502 30.7833 30.502 30.0737 29.1807 29.4927Z" fill="#D9D9D9"/>
</mask>
<g mask="url(#mask0_252_475)">
<path d="M13.0472 31.971C14.4109 34.2866 12.2139 37.8641 12.2139 37.8641C9.96331 41.6166 11.9178 43.5111 12.8549 44.5504C10.6678 42.7982 9.11848 40.3745 8.44643 37.6537C7.77439 34.933 8.01698 32.0667 9.13674 29.4976C10.091 29.6004 12.008 30.2062 13.0472 31.971Z" fill="#FBBC05"/>
<path d="M32.1858 31.1126L32.8431 30.8999C32.8975 30.8824 32.9526 30.8673 33.0084 30.8548C32.1017 27.8867 30.1396 25.3534 27.4926 23.7331C21.5609 20.0904 13.8171 21.8833 10.0832 27.7246C11.4649 28.045 13.4756 28.9342 14.6917 31.0006C15.8091 32.8987 15.3745 35.0705 14.9601 36.3689C14.6868 37.2126 14.3256 38.0253 13.8825 38.7936L13.8472 38.8512C12.9432 40.3622 13.0277 41.216 13.166 41.6705C13.3356 42.2325 13.6988 42.635 14.2055 43.1961L14.2712 43.2694C14.5586 43.5879 14.7305 43.9937 14.7594 44.4217C14.7882 44.8497 14.6724 45.275 14.4304 45.6292C17.0758 47.1664 20.1872 47.697 23.1926 47.1234C23.0217 46.9705 22.8667 46.8185 22.7328 46.6809C22.1281 46.0552 21.5419 45.2703 21.1996 44.5364C20.8622 43.819 20.7648 42.8496 20.7186 42.2183C20.6842 41.7409 20.6957 41.2811 20.7047 40.9036L20.7085 40.7683C20.7188 40.4275 20.7253 40.1563 20.7178 39.8883C20.7 39.3448 20.6157 38.9729 20.4043 38.6276C19.9958 38.5084 19.5514 38.3282 19.1296 38.0722C18.1266 37.4592 17.6506 36.4607 17.533 35.5462C17.4186 34.6272 17.6244 33.6968 18.1156 32.9117C20.1185 29.7282 23.8877 29.4547 26.7296 30.8663C27.5563 31.2767 28.6165 31.4431 29.7053 31.434C30.5423 31.4298 31.3754 31.3219 32.1858 31.1126Z" fill="#FBBC05"/>
<path d="M25.8813 32.5794C28.2701 33.7666 31.4521 33.3164 32.7445 32.9416L33.4333 32.7213C33.8788 35.6873 33.26 38.7153 31.6866 41.2687C30.2095 43.674 28.0623 45.4164 25.6364 46.4042C24.7078 46.184 23.3921 44.7087 22.933 43.7266C22.7672 43.3705 22.6758 42.7398 22.6281 42.0792C22.5199 40.5914 22.9544 39.0629 21.9947 37.5609C21.7524 37.184 21.3788 36.9103 20.9463 36.7929C20.6673 36.7113 20.381 36.5953 20.1278 36.4398C19.3063 35.9383 19.2239 34.7447 19.7363 33.9298C21.0695 31.8101 23.6472 31.4692 25.8813 32.5794Z" fill="#FBBC05"/>
</g>
<path fill-rule="evenodd" clip-rule="evenodd" d="M20.6747 4.32031C21.0706 4.32031 21.4666 4.33475 21.8616 4.36319C22.2571 4.39206 22.6504 4.43494 23.0429 4.49225C23.4349 4.54956 23.8242 4.62087 24.2114 4.70663C24.5982 4.79194 24.9814 4.89169 25.3612 5.005C25.7409 5.11831 26.1159 5.24519 26.4864 5.38606C26.857 5.5265 27.2219 5.6805 27.5811 5.84763C27.9403 6.01475 28.2933 6.19456 28.6394 6.38706C28.9859 6.58 29.3245 6.78475 29.6561 7.00219C29.9873 7.21963 30.3102 7.44844 30.6252 7.6895C30.9398 7.93013 31.2456 8.18213 31.5417 8.44463C31.8384 8.70756 32.1249 8.981 32.4014 9.26494C32.6784 9.54844 32.9444 9.842 33.1994 10.1452C33.4549 10.4479 33.6991 10.7599 33.9314 11.0806C34.1641 11.4013 34.3851 11.7303 34.5938 12.0671C34.8029 12.4036 34.9989 12.7479 35.1831 13.0988C35.3668 13.4496 35.5374 13.8071 35.6954 14.1702H30.9791C30.8671 13.9939 30.7507 13.8198 30.63 13.6491C30.5093 13.4785 30.3841 13.3109 30.2546 13.1469C30.1251 12.9824 29.9917 12.8214 29.8539 12.6643C29.7161 12.5068 29.5743 12.3528 29.4286 12.2028C29.2829 12.0527 29.1338 11.9066 28.9806 11.7639C28.8275 11.6213 28.6704 11.4831 28.5103 11.3488C28.3502 11.2144 28.1866 11.0841 28.0194 10.9581C27.8523 10.8321 27.6821 10.7109 27.5089 10.5936C27.3356 10.4764 27.1597 10.3635 26.9804 10.2554C26.8014 10.1474 26.6199 10.0437 26.4352 9.94525C26.2511 9.84638 26.0643 9.75231 25.8752 9.66306C25.6858 9.57381 25.4946 9.48981 25.3008 9.41063C25.1074 9.331 24.9119 9.25663 24.7146 9.1875C24.5173 9.11838 24.3182 9.05406 24.1174 8.995C23.917 8.93594 23.7149 8.88213 23.5114 8.83356C23.308 8.785 23.1033 8.74169 22.8976 8.70363C22.692 8.66513 22.4855 8.63275 22.2781 8.60519C22.0707 8.57763 21.8629 8.55531 21.6542 8.53869C21.446 8.52206 21.2373 8.51025 21.0282 8.50456C20.8191 8.49844 20.6099 8.49756 20.4008 8.50238C20.1917 8.50719 19.983 8.51725 19.7743 8.53256C19.5656 8.54831 19.3574 8.56888 19.15 8.59513C18.9426 8.62138 18.7357 8.65288 18.5301 8.68963C18.324 8.72638 18.1192 8.76838 17.9154 8.81606C17.7115 8.86331 17.5094 8.91581 17.3081 8.97356C17.1073 9.03131 16.9078 9.09431 16.7101 9.16213C16.5123 9.23038 16.3163 9.30344 16.1221 9.38131C15.9282 9.45963 15.7362 9.54275 15.5463 9.63069C15.3569 9.71863 15.1692 9.81138 14.9846 9.90894C14.7995 10.0065 14.6171 10.1089 14.4372 10.2156C14.2574 10.3228 14.0807 10.4344 13.9066 10.5503C13.7329 10.6667 13.5618 10.787 13.3942 10.9121C13.2262 11.0368 13.0617 11.1659 12.9007 11.2993C12.7393 11.4328 12.5818 11.5701 12.4278 11.7114C12.2738 11.8532 12.1233 11.9984 11.9767 12.1476C11.8302 12.2968 11.6876 12.4495 11.5489 12.6061C11.4102 12.7628 11.2754 12.9229 11.1451 13.0861C11.0147 13.2497 10.8882 13.4164 10.7662 13.5866C10.6446 13.7563 10.5269 13.9296 10.414 14.1054C10.3011 14.2813 10.1926 14.4603 10.0889 14.6418C9.98481 14.8234 9.88594 15.0076 9.79144 15.1944C9.69694 15.3808 9.60769 15.5698 9.52325 15.7609C9.43837 15.9526 9.35875 16.1459 9.28394 16.3411C9.20956 16.5366 9.14 16.7335 9.07525 16.9326C9.01094 17.1316 8.95144 17.332 8.89719 17.5341C8.84294 17.7363 8.79394 17.9397 8.75019 18.144C8.70644 18.3488 8.66794 18.5539 8.63512 18.7604C8.60187 18.9669 8.57387 19.1743 8.55156 19.3821C8.52881 19.5904 8.51175 19.7986 8.49994 20.0073C8.48812 20.2164 8.48156 20.4256 8.48069 20.6347C8.47981 20.8438 8.48419 21.0529 8.49381 21.2616C8.50344 21.4708 8.51875 21.679 8.53887 21.8873C8.55944 22.0955 8.58525 22.3029 8.61631 22.5098C8.64737 22.7168 8.68412 22.9228 8.72569 23.1276C8.76769 23.3323 8.8145 23.5362 8.86656 23.7388C8.91906 23.9413 8.97637 24.1426 9.03894 24.3421C9.1015 24.5416 9.16887 24.7393 9.24194 24.9358C9.31456 25.1318 9.39244 25.326 9.47512 25.5181C9.55781 25.7101 9.64531 25.9 9.73762 26.0877C9.83037 26.2749 9.9275 26.4604 10.0294 26.6429C10.1318 26.8253 10.2381 27.0051 10.3497 27.1823C10.4608 27.3595 10.5767 27.5336 10.6966 27.7047C10.8169 27.8762 10.9416 28.0438 11.0707 28.2087C11.1993 28.3736 11.3323 28.5346 11.4697 28.6926C10.1812 29.2854 8.9615 29.9954 7.80956 30.8232C7.24431 30.107 6.74206 29.3484 6.30369 28.5478C5.86575 27.7476 5.49694 26.9159 5.19856 26.0536C4.89975 25.1913 4.67487 24.3101 4.52437 23.4098C4.37387 22.5098 4.29906 21.6033 4.30081 20.6907C4.30081 11.6511 11.6316 4.32031 20.6747 4.32031ZM29.8792 28.6926C31.1681 29.2854 32.3883 29.9954 33.5403 30.8232C34.1055 30.107 34.6073 29.3484 35.0457 28.5478C35.4841 27.7476 35.8524 26.9159 36.1508 26.0536C36.4496 25.1913 36.6741 24.3097 36.8246 23.4098C36.9755 22.5098 37.0499 21.6033 37.0481 20.6907C37.0481 20.202 37.0258 19.719 36.9842 19.2408H27.4581V23.4203H32.5677C32.3433 24.3963 32.0037 25.3304 31.5492 26.2224C31.0942 27.1145 30.5377 27.9379 29.8792 28.6926Z" fill="#0C4B36"/>
<path d="M15.7656 24.1895V29.1412C15.7656 29.2654 15.8662 29.3665 15.9909 29.3665H21.3052V24.883H23.8016V29.3665H25.2865C25.4116 29.3665 25.5122 29.2654 25.5122 29.1412V24.1895L20.6416 19.3398L15.7656 24.1895ZM19.7285 26.972H17.4758V24.8834H19.7285V26.972Z" fill="#FBBC05"/>
<mask id="mask1_252_475" style="mask-type:luminance" maskUnits="userSpaceOnUse" x="14" y="16" width="13" height="8">
<path d="M14.5312 16.5481H26.7393V23.5665H14.5312V16.5481Z" fill="white"/>
</mask>
<g mask="url(#mask1_252_475)">
<path d="M26.4991 22.4089L20.6388 16.5491L17.8743 19.3132V18.0969C17.8743 17.8126 17.6437 17.582 17.3593 17.582C17.0754 17.582 16.8448 17.8126 16.8448 18.0969V20.3431L14.7785 22.4089C14.527 22.6605 14.527 23.0678 14.7785 23.3194C14.9041 23.4449 15.0686 23.5075 15.2335 23.5075C15.3985 23.5075 15.5625 23.4449 15.6885 23.3194L20.6393 18.3695L25.5891 23.3194C25.8407 23.5709 26.248 23.5709 26.4991 23.3194C26.7503 23.0678 26.7503 22.6601 26.4991 22.4089Z" fill="#FBBC05"/>
</g>
<path d="M46.852 17.896C47.356 17.0747 48.0093 16.4307 48.812 15.964C49.6333 15.4973 50.5667 15.264 51.612 15.264V19.38H50.576C49.344 19.38 48.4107 19.6693 47.776 20.248C47.16 20.8267 46.852 21.8347 46.852 23.272V31H42.932V15.488H46.852V17.896ZM68.6723 22.908C68.6723 23.468 68.635 23.972 68.5603 24.42H57.2203C57.3136 25.54 57.7056 26.4173 58.3963 27.052C59.087 27.6867 59.9363 28.004 60.9443 28.004C62.4003 28.004 63.4363 27.3787 64.0523 26.128H68.2803C67.8323 27.6213 66.9736 28.8533 65.7043 29.824C64.435 30.776 62.8763 31.252 61.0283 31.252C59.535 31.252 58.191 30.9253 56.9963 30.272C55.8203 29.6 54.8963 28.6573 54.2243 27.444C53.571 26.2307 53.2443 24.8307 53.2443 23.244C53.2443 21.6387 53.571 20.2293 54.2243 19.016C54.8776 17.8027 55.7923 16.8693 56.9683 16.216C58.1443 15.5627 59.4976 15.236 61.0283 15.236C62.503 15.236 63.819 15.5533 64.9763 16.188C66.1523 16.8227 67.0576 17.728 67.6923 18.904C68.3456 20.0613 68.6723 21.396 68.6723 22.908ZM64.6123 21.788C64.5936 20.78 64.2296 19.9773 63.5203 19.38C62.811 18.764 61.943 18.456 60.9163 18.456C59.9456 18.456 59.1243 18.7547 58.4523 19.352C57.799 19.9307 57.3976 20.7427 57.2483 21.788H64.6123ZM85.9536 22.908C85.9536 23.468 85.9162 23.972 85.8416 24.42H74.5016C74.5949 25.54 74.9869 26.4173 75.6776 27.052C76.3682 27.6867 77.2176 28.004 78.2256 28.004C79.6816 28.004 80.7176 27.3787 81.3336 26.128H85.5616C85.1136 27.6213 84.2549 28.8533 82.9856 29.824C81.7162 30.776 80.1576 31.252 78.3096 31.252C76.8162 31.252 75.4722 30.9253 74.2776 30.272C73.1016 29.6 72.1776 28.6573 71.5056 27.444C70.8522 26.2307 70.5256 24.8307 70.5256 23.244C70.5256 21.6387 70.8522 20.2293 71.5056 19.016C72.1589 17.8027 73.0736 16.8693 74.2496 16.216C75.4256 15.5627 76.7789 15.236 78.3096 15.236C79.7842 15.236 81.1002 15.5533 82.2576 16.188C83.4336 16.8227 84.3389 17.728 84.9736 18.904C85.6269 20.0613 85.9536 21.396 85.9536 22.908ZM81.8936 21.788C81.8749 20.78 81.5109 19.9773 80.8016 19.38C80.0922 18.764 79.2242 18.456 78.1976 18.456C77.2269 18.456 76.4056 18.7547 75.7336 19.352C75.0802 19.9307 74.6789 20.7427 74.5296 21.788H81.8936ZM97.4108 15.264C99.2588 15.264 100.752 15.852 101.891 17.028C103.029 18.1853 103.599 19.8093 103.599 21.9V31H99.6788V22.432C99.6788 21.2 99.3708 20.2573 98.7548 19.604C98.1388 18.932 97.2988 18.596 96.2348 18.596C95.1521 18.596 94.2935 18.932 93.6588 19.604C93.0428 20.2573 92.7348 21.2 92.7348 22.432V31H88.8148V15.488H92.7348V17.42C93.2575 16.748 93.9201 16.2253 94.7228 15.852C95.5441 15.46 96.4401 15.264 97.4108 15.264ZM130.21 11.456V31H126.29V22.684H117.918V31H113.998V11.456H117.918V19.492H126.29V11.456H130.21ZM133.061 23.188C133.061 21.62 133.369 20.2293 133.985 19.016C134.619 17.8027 135.469 16.8693 136.533 16.216C137.615 15.5627 138.819 15.236 140.145 15.236C141.302 15.236 142.31 15.4693 143.169 15.936C144.046 16.4027 144.746 16.9907 145.269 17.7V15.488H149.217V31H145.269V28.732C144.765 29.46 144.065 30.0667 143.169 30.552C142.291 31.0187 141.274 31.252 140.117 31.252C138.81 31.252 137.615 30.916 136.533 30.244C135.469 29.572 134.619 28.6293 133.985 27.416C133.369 26.184 133.061 24.7747 133.061 23.188ZM145.269 23.244C145.269 22.292 145.082 21.48 144.709 20.808C144.335 20.1173 143.831 19.5947 143.197 19.24C142.562 18.8667 141.881 18.68 141.153 18.68C140.425 18.68 139.753 18.8573 139.137 19.212C138.521 19.5667 138.017 20.0893 137.625 20.78C137.251 21.452 137.065 22.2547 137.065 23.188C137.065 24.1213 137.251 24.9427 137.625 25.652C138.017 26.3427 138.521 26.8747 139.137 27.248C139.771 27.6213 140.443 27.808 141.153 27.808C141.881 27.808 142.562 27.6307 143.197 27.276C143.831 26.9027 144.335 26.38 144.709 25.708C145.082 25.0173 145.269 24.196 145.269 23.244ZM159.513 27.388L163.433 15.488H167.605L161.865 31H157.105L151.393 15.488H155.593L159.513 27.388ZM184.227 22.908C184.227 23.468 184.19 23.972 184.115 24.42H172.775C172.868 25.54 173.26 26.4173 173.951 27.052C174.642 27.6867 175.491 28.004 176.499 28.004C177.955 28.004 178.991 27.3787 179.607 26.128H183.835C183.387 27.6213 182.528 28.8533 181.259 29.824C179.99 30.776 178.431 31.252 176.583 31.252C175.09 31.252 173.746 30.9253 172.551 30.272C171.375 29.6 170.451 28.6573 169.779 27.444C169.126 26.2307 168.799 24.8307 168.799 23.244C168.799 21.6387 169.126 20.2293 169.779 19.016C170.432 17.8027 171.347 16.8693 172.523 16.216C173.699 15.5627 175.052 15.236 176.583 15.236C178.058 15.236 179.374 15.5533 180.531 16.188C181.707 16.8227 182.612 17.728 183.247 18.904C183.9 20.0613 184.227 21.396 184.227 22.908ZM180.167 21.788C180.148 20.78 179.784 19.9773 179.075 19.38C178.366 18.764 177.498 18.456 176.471 18.456C175.5 18.456 174.679 18.7547 174.007 19.352C173.354 19.9307 172.952 20.7427 172.803 21.788H180.167ZM195.684 15.264C197.532 15.264 199.026 15.852 200.164 17.028C201.303 18.1853 201.872 19.8093 201.872 21.9V31H197.952V22.432C197.952 21.2 197.644 20.2573 197.028 19.604C196.412 18.932 195.572 18.596 194.508 18.596C193.426 18.596 192.567 18.932 191.932 19.604C191.316 20.2573 191.008 21.2 191.008 22.432V31H187.088V15.488H191.008V17.42C191.531 16.748 192.194 16.2253 192.996 15.852C193.818 15.46 194.714 15.264 195.684 15.264Z" fill="#0C4B36"/>
</svg>
